<?xml version="1.0" encoding="UTF-8"?>
<!-- Created with Inkscape (http://www.inkscape.org/) -->
<svg width="24.412mm" height="24.412mm" version="1.1" viewBox="0 0 24.412 24.412" xmlns="http://www.w3.org/2000/svg">
 <g transform="matrix(.24699 0 0 .24699 -.3295 -.23406)" featurekey="1p4tPl-0">
  <path d="m28.086 26.696c1.603 1.427 1.745 3.883 0.318 5.485-1.423 1.602-3.88 1.748-5.484 0.322-1.604-1.424-1.747-3.882-0.321-5.488 1.426-1.6 3.883-1.749 5.487-0.319z"/>
  <path d="m20.448 21.232c1.202 1.068 1.312 2.911 0.24 4.115-1.07 1.202-2.911 1.31-4.115 0.242-1.203-1.074-1.31-2.916-0.242-4.119 1.069-1.201 2.912-1.309 4.117-0.238z"/>
  <path d="m17.447 49.966c1.82 0.107 3.21 1.675 3.101 3.492-0.105 1.819-1.673 3.211-3.494 3.1-1.818-0.104-3.208-1.665-3.101-3.485 0.106-1.826 1.67-3.215 3.494-3.107z"/>
  <path d="m8.741 50.277c1.365 0.083 2.41 1.256 2.329 2.625-0.084 1.36-1.254 2.403-2.622 2.325-1.366-0.083-2.407-1.257-2.325-2.619 0.081-1.367 1.255-2.412 2.618-2.331z"/>
  <path d="m22.981 71.35c1.271-0.883 3.021-0.57 3.909 0.698 0.887 1.275 0.575 3.024-0.697 3.912-1.271 0.888-3.023 0.573-3.911-0.698-0.884-1.27-0.574-3.021 0.699-3.912z"/>
  <path d="m17.334 76.139c0.957-0.662 2.272-0.426 2.936 0.526 0.664 0.953 0.432 2.269-0.524 2.933-0.957 0.664-2.269 0.432-2.935-0.521-0.664-0.957-0.427-2.271 0.523-2.938z"/>
  <path d="m42.256 21.413c1.253 2.282 0.422 5.149-1.854 6.408-2.28 1.253-5.148 0.422-6.404-1.856-1.256-2.281-0.424-5.149 1.856-6.408 2.279-1.252 5.144-0.423 6.402 1.856z"/>
  <path d="m23.39 38.076c2.368 0.862 3.59 3.483 2.731 5.851-0.869 2.367-3.483 3.593-5.856 2.729-2.369-0.861-3.586-3.479-2.728-5.85 0.864-2.366 3.483-3.587 5.853-2.73z"/>
  <path d="m20.781 60.01c2.097-0.6 4.287 0.613 4.885 2.706 0.6 2.099-0.615 4.285-2.71 4.883-2.096 0.602-4.284-0.614-4.882-2.706-0.599-2.095 0.613-4.283 2.707-4.883z"/>
  <path d="m29.376 76.139c0.727-1.208 2.296-1.603 3.51-0.875 1.209 0.723 1.604 2.298 0.876 3.503-0.727 1.215-2.298 1.607-3.506 0.882-1.213-0.727-1.601-2.297-0.88-3.51z"/>
  <path d="m50.756 10.471c-2.898 0-5.241 2.346-5.241 5.24 0 2.891 2.343 5.24 5.241 5.24 2.889 0 5.234-2.349 5.234-5.24 1e-3 -2.894-2.345-5.24-5.234-5.24z"/>
  <path d="m50.756 0.948c-1.787 0-3.233 1.447-3.233 3.229 0 1.783 1.446 3.229 3.233 3.229 1.781 0 3.224-1.447 3.224-3.229s-1.443-3.229-3.224-3.229z"/>
  <path d="m73.419 26.696c-1.603 1.427-1.744 3.883-0.318 5.485 1.424 1.602 3.882 1.748 5.483 0.322 1.606-1.424 1.745-3.882 0.323-5.488-1.424-1.6-3.885-1.749-5.488-0.319z"/>
  <path d="m81.058 21.232c-1.2 1.068-1.309 2.911-0.241 4.115 1.075 1.202 2.919 1.31 4.116 0.242 1.204-1.074 1.312-2.916 0.241-4.119-1.07-1.201-2.912-1.309-4.116-0.238z"/>
  <path d="m84.059 49.966c-1.82 0.107-3.207 1.675-3.102 3.492 0.104 1.819 1.673 3.211 3.489 3.1 1.823-0.104 3.212-1.665 3.106-3.485-0.108-1.826-1.669-3.215-3.493-3.107z"/>
  <path d="m92.764 50.277c-1.362 0.083-2.408 1.256-2.326 2.625 0.081 1.36 1.252 2.403 2.621 2.325 1.364-0.083 2.405-1.257 2.325-2.619-0.081-1.367-1.256-2.412-2.62-2.331z"/>
  <path d="m78.523 71.35c-1.268-0.883-3.021-0.57-3.909 0.698-0.886 1.275-0.57 3.024 0.698 3.912 1.273 0.888 3.023 0.573 3.909-0.698 0.887-1.27 0.576-3.021-0.698-3.912z"/>
  <path d="m84.168 76.139c-0.954-0.662-2.267-0.426-2.932 0.526-0.663 0.953-0.428 2.269 0.523 2.933 0.953 0.664 2.267 0.432 2.934-0.521 0.662-0.957 0.428-2.271-0.525-2.938z"/>
  <path d="m59.251 21.413c-1.258 2.282-0.423 5.149 1.853 6.408 2.28 1.253 5.147 0.422 6.406-1.856 1.255-2.281 0.424-5.149-1.858-6.408-2.277-1.252-5.146-0.423-6.401 1.856z"/>
  <path d="m78.117 38.076c-2.37 0.862-3.589 3.483-2.729 5.851 0.862 2.367 3.479 3.593 5.854 2.729 2.364-0.861 3.585-3.479 2.728-5.85-0.865-2.366-3.485-3.587-5.853-2.73z"/>
  <path d="m80.726 60.01c-2.098-0.6-4.285 0.613-4.888 2.706-0.6 2.099 0.616 4.285 2.714 4.883 2.096 0.602 4.277-0.614 4.883-2.706 0.595-2.095-0.614-4.283-2.709-4.883z"/>
  <path d="m72.129 76.139c-0.727-1.208-2.3-1.603-3.51-0.875-1.21 0.723-1.606 2.298-0.873 3.503 0.724 1.215 2.296 1.607 3.504 0.882 1.21-0.727 1.601-2.297 0.879-3.51z"/>
  <path d="m50.75 24.468h6e-3z"/>
  <path d="m78.421 53.608c-0.095-1.613-1.046-2.974-2.389-3.66l-0.029 0.032c-2.799-1.336-4.733-4.194-4.733-7.5 0-1.077 0.205-2.098 0.574-3.044l0.02 7e-3c0.64-1.734 0.321-3.761-0.989-5.237-1.273-1.436-3.172-1.993-4.928-1.63l0.012 3e-3c-0.686 0.182-1.399 0.279-2.14 0.279-3.447 0-6.409-2.102-7.663-5.097l0.011-3e-3c-1.016-1.957-3.062-3.289-5.41-3.289-2.356 0-4.402 1.333-5.419 3.289l0.015 3e-3c-1.261 2.995-4.219 5.097-7.666 5.097-0.736 0-1.456-0.098-2.136-0.279l0.012-3e-3c-1.755-0.363-3.653 0.194-4.934 1.63-1.312 1.477-1.626 3.503-0.986 5.237l0.019-7e-3c0.371 0.946 0.575 1.968 0.575 3.044 0 3.306-1.929 6.164-4.732 7.5l-0.028-0.032c-1.344 0.686-2.295 2.046-2.392 3.66-0.096 1.625 0.703 3.101 1.974 3.937h1e-3c2.235 1.49 3.712 4.034 3.712 6.924 0 0.963-0.162 1.889-0.465 2.751l-7e-3 -0.029c-0.5 1.146-0.406 2.524 0.363 3.626 0.712 1.029 1.855 1.582 3.016 1.6v-4e-3c2.381 0 4.274 2.005 4.293 4.467 0 0.133 7e-3 0.089 0 0.213-0.05 1.369 0.8 2.664 2.166 3.125 1.669 0.555 3.472-0.341 4.03-2.01 0.27-0.8 0.196-1.63-0.133-2.34l-0.066-0.06c-1.434-2.738-4.074-5.676-4.514-6.115-4.117-4.029-5.734-8.438-5.734-13.945 0-10.521 8.517-19.053 19.033-19.086 10.515 0.034 19.028 8.565 19.028 19.086 0 5.507-1.618 9.916-5.733 13.945-0.441 0.44-3.082 3.377-4.515 6.115l-0.069 0.06c-0.325 0.71-0.402 1.54-0.132 2.34 0.561 1.668 2.361 2.564 4.032 2.01 1.366-0.461 2.211-1.756 2.166-3.125-8e-3 -0.124 0-0.08 0-0.213 0.02-2.462 1.912-4.467 4.291-4.467v4e-3c1.164-0.018 2.306-0.57 3.021-1.6 0.771-1.102 0.862-2.479 0.362-3.626l-7e-3 0.028c-0.301-0.861-0.464-1.788-0.464-2.751 0-2.89 1.474-5.434 3.714-6.924h2e-3c1.267-0.836 2.071-2.311 1.971-3.936z"/>
  <path d="m55.114 91.567v-0.597l4.23-0.57c0.339-0.047 0.575-0.359 0.531-0.695-0.047-0.336-0.355-0.572-0.695-0.527l-10.788 1.404c-0.338 0.045-0.647-0.19-0.694-0.528-0.045-0.336 0.192-0.647 0.529-0.691l4.042-0.546v-0.593l1.616-0.217v0.599l1.229-0.164v-0.602l4.23-0.57c0.339-0.047 0.575-0.359 0.531-0.693-0.047-0.338-0.355-0.574-0.695-0.528l-10.788 1.405c-0.338 0.047-0.647-0.189-0.694-0.528-0.045-0.334 0.192-0.647 0.529-0.694l4.042-0.547v-1.47l-9.403 2e-3v2.775l-0.199 0.035c-0.411 0.059-0.698 0.435-0.644 0.847 0.054 0.408 0.431 0.697 0.843 0.646v1.6l-0.199 0.039c-0.411 0.059-0.698 0.438-0.644 0.846 0.054 0.411 0.431 0.7 0.843 0.644v1.608l-0.199 0.035c-0.411 0.054-0.698 0.433-0.644 0.846 0.054 0.407 0.431 0.696 0.843 0.64v1.537l1.982 1.931h3.123c0.037 0.854 1.209 1.54 2.646 1.54 1.439 0 2.605-0.686 2.646-1.54h3.295l1.972-1.914-9e-3 -2.689 0.823-0.11c0.339-0.046 0.575-0.359 0.53-0.694-0.046-0.338-0.355-0.573-0.695-0.528v-1e-3l-10.788 1.406c-0.338 0.048-0.647-0.188-0.694-0.524-0.045-0.343 0.192-0.65 0.529-0.697l4.042-0.543v-0.596l1.617-0.217v0.599zm-9.133-5.033c0.351 0 0.635 0.286 0.635 0.636s-0.284 0.634-0.635 0.634-0.636-0.283-0.636-0.634c1e-3 -0.35 0.285-0.636 0.636-0.636zm0 7.533c-0.351 0-0.636-0.284-0.636-0.638 0-0.349 0.285-0.635 0.636-0.635s0.635 0.286 0.635 0.635c1e-3 0.354-0.283 0.638-0.635 0.638zm0.024-3.135c-0.351 0-0.637-0.281-0.637-0.632 0-0.349 0.286-0.634 0.637-0.634 0.352 0 0.635 0.285 0.635 0.634 0 0.35-0.283 0.632-0.635 0.632z"/>
  <polygon points="55.114 85.311 55.114 84.215 53.886 84.215 53.886 85.471"/>
 </g>
</svg>
