<?xml version="1.0" encoding="UTF-8"?>
<svg width="369.67" height="92.265" viewBox="0 0 369.67 92.265" xmlns="http://www.w3.org/2000/svg">
 <g transform="matrix(.9335 0 0 .9335 -5.7116 -.88496)" fill="#fff" featurekey="1p4tPl-0">
  <path d="m28.086 26.696c1.603 1.427 1.745 3.883 0.318 5.485-1.423 1.602-3.88 1.748-5.484 0.322-1.604-1.424-1.747-3.882-0.321-5.488 1.426-1.6 3.883-1.749 5.487-0.319z"/>
  <path d="m20.448 21.232c1.202 1.068 1.312 2.911 0.24 4.115-1.07 1.202-2.911 1.31-4.115 0.242-1.203-1.074-1.31-2.916-0.242-4.119 1.069-1.201 2.912-1.309 4.117-0.238z"/>
  <path d="m17.447 49.966c1.82 0.107 3.21 1.675 3.101 3.492-0.105 1.819-1.673 3.211-3.494 3.1-1.818-0.104-3.208-1.665-3.101-3.485 0.106-1.826 1.67-3.215 3.494-3.107z"/>
  <path d="m8.741 50.277c1.365 0.083 2.41 1.256 2.329 2.625-0.084 1.36-1.254 2.403-2.622 2.325-1.366-0.083-2.407-1.257-2.325-2.619 0.081-1.367 1.255-2.412 2.618-2.331z"/>
  <path d="m22.981 71.35c1.271-0.883 3.021-0.57 3.909 0.698 0.887 1.275 0.575 3.024-0.697 3.912-1.271 0.888-3.023 0.573-3.911-0.698-0.884-1.27-0.574-3.021 0.699-3.912z"/>
  <path d="m17.334 76.139c0.957-0.662 2.272-0.426 2.936 0.526 0.664 0.953 0.432 2.269-0.524 2.933-0.957 0.664-2.269 0.432-2.935-0.521-0.664-0.957-0.427-2.271 0.523-2.938z"/>
  <path d="m42.256 21.413c1.253 2.282 0.422 5.149-1.854 6.408-2.28 1.253-5.148 0.422-6.404-1.856-1.256-2.281-0.424-5.149 1.856-6.408 2.279-1.252 5.144-0.423 6.402 1.856z"/>
  <path d="m23.39 38.076c2.368 0.862 3.59 3.483 2.731 5.851-0.869 2.367-3.483 3.593-5.856 2.729-2.369-0.861-3.586-3.479-2.728-5.85 0.864-2.366 3.483-3.587 5.853-2.73z"/>
  <path d="m20.781 60.01c2.097-0.6 4.287 0.613 4.885 2.706 0.6 2.099-0.615 4.285-2.71 4.883-2.096 0.602-4.284-0.614-4.882-2.706-0.599-2.095 0.613-4.283 2.707-4.883z"/>
  <path d="m29.376 76.139c0.727-1.208 2.296-1.603 3.51-0.875 1.209 0.723 1.604 2.298 0.876 3.503-0.727 1.215-2.298 1.607-3.506 0.882-1.213-0.727-1.601-2.297-0.88-3.51z"/>
  <path d="m50.756 10.471c-2.898 0-5.241 2.346-5.241 5.24 0 2.891 2.343 5.24 5.241 5.24 2.889 0 5.234-2.349 5.234-5.24 1e-3 -2.894-2.345-5.24-5.234-5.24z"/>
  <path d="m50.756 0.948c-1.787 0-3.233 1.447-3.233 3.229 0 1.783 1.446 3.229 3.233 3.229 1.781 0 3.224-1.447 3.224-3.229s-1.443-3.229-3.224-3.229z"/>
  <path d="m73.419 26.696c-1.603 1.427-1.744 3.883-0.318 5.485 1.424 1.602 3.882 1.748 5.483 0.322 1.606-1.424 1.745-3.882 0.323-5.488-1.424-1.6-3.885-1.749-5.488-0.319z"/>
  <path d="m81.058 21.232c-1.2 1.068-1.309 2.911-0.241 4.115 1.075 1.202 2.919 1.31 4.116 0.242 1.204-1.074 1.312-2.916 0.241-4.119-1.07-1.201-2.912-1.309-4.116-0.238z"/>
  <path d="m84.059 49.966c-1.82 0.107-3.207 1.675-3.102 3.492 0.104 1.819 1.673 3.211 3.489 3.1 1.823-0.104 3.212-1.665 3.106-3.485-0.108-1.826-1.669-3.215-3.493-3.107z"/>
  <path d="m92.764 50.277c-1.362 0.083-2.408 1.256-2.326 2.625 0.081 1.36 1.252 2.403 2.621 2.325 1.364-0.083 2.405-1.257 2.325-2.619-0.081-1.367-1.256-2.412-2.62-2.331z"/>
  <path d="m78.523 71.35c-1.268-0.883-3.021-0.57-3.909 0.698-0.886 1.275-0.57 3.024 0.698 3.912 1.273 0.888 3.023 0.573 3.909-0.698 0.887-1.27 0.576-3.021-0.698-3.912z"/>
  <path d="m84.168 76.139c-0.954-0.662-2.267-0.426-2.932 0.526-0.663 0.953-0.428 2.269 0.523 2.933 0.953 0.664 2.267 0.432 2.934-0.521 0.662-0.957 0.428-2.271-0.525-2.938z"/>
  <path d="m59.251 21.413c-1.258 2.282-0.423 5.149 1.853 6.408 2.28 1.253 5.147 0.422 6.406-1.856 1.255-2.281 0.424-5.149-1.858-6.408-2.277-1.252-5.146-0.423-6.401 1.856z"/>
  <path d="m78.117 38.076c-2.37 0.862-3.589 3.483-2.729 5.851 0.862 2.367 3.479 3.593 5.854 2.729 2.364-0.861 3.585-3.479 2.728-5.85-0.865-2.366-3.485-3.587-5.853-2.73z"/>
  <path d="m80.726 60.01c-2.098-0.6-4.285 0.613-4.888 2.706-0.6 2.099 0.616 4.285 2.714 4.883 2.096 0.602 4.277-0.614 4.883-2.706 0.595-2.095-0.614-4.283-2.709-4.883z"/>
  <path d="m72.129 76.139c-0.727-1.208-2.3-1.603-3.51-0.875-1.21 0.723-1.606 2.298-0.873 3.503 0.724 1.215 2.296 1.607 3.504 0.882 1.21-0.727 1.601-2.297 0.879-3.51z"/>
  <path d="m50.75 24.468h6e-3 -6e-3z"/>
  <path d="m78.421 53.608c-0.095-1.613-1.046-2.974-2.389-3.66l-0.029 0.032c-2.799-1.336-4.733-4.194-4.733-7.5 0-1.077 0.205-2.098 0.574-3.044l0.02 7e-3c0.64-1.734 0.321-3.761-0.989-5.237-1.273-1.436-3.172-1.993-4.928-1.63l0.012 3e-3c-0.686 0.182-1.399 0.279-2.14 0.279-3.447 0-6.409-2.102-7.663-5.097l0.011-3e-3c-1.016-1.957-3.062-3.289-5.41-3.289-2.356 0-4.402 1.333-5.419 3.289l0.015 3e-3c-1.261 2.995-4.219 5.097-7.666 5.097-0.736 0-1.456-0.098-2.136-0.279l0.012-3e-3c-1.755-0.363-3.653 0.194-4.934 1.63-1.312 1.477-1.626 3.503-0.986 5.237l0.019-7e-3c0.371 0.946 0.575 1.968 0.575 3.044 0 3.306-1.929 6.164-4.732 7.5l-0.028-0.032c-1.344 0.686-2.295 2.046-2.392 3.66-0.096 1.625 0.703 3.101 1.974 3.937h1e-3c2.235 1.49 3.712 4.034 3.712 6.924 0 0.963-0.162 1.889-0.465 2.751l-7e-3 -0.029c-0.5 1.146-0.406 2.524 0.363 3.626 0.712 1.029 1.855 1.582 3.016 1.6v-4e-3c2.381 0 4.274 2.005 4.293 4.467 0 0.133 7e-3 0.089 0 0.213-0.05 1.369 0.8 2.664 2.166 3.125 1.669 0.555 3.472-0.341 4.03-2.01 0.27-0.8 0.196-1.63-0.133-2.34l-0.066-0.06c-1.434-2.738-4.074-5.676-4.514-6.115-4.117-4.029-5.734-8.438-5.734-13.945 0-10.521 8.517-19.053 19.033-19.086 10.515 0.034 19.028 8.565 19.028 19.086 0 5.507-1.618 9.916-5.733 13.945-0.441 0.44-3.082 3.377-4.515 6.115l-0.069 0.06c-0.325 0.71-0.402 1.54-0.132 2.34 0.561 1.668 2.361 2.564 4.032 2.01 1.366-0.461 2.211-1.756 2.166-3.125-8e-3 -0.124 0-0.08 0-0.213 0.02-2.462 1.912-4.467 4.291-4.467v4e-3c1.164-0.018 2.306-0.57 3.021-1.6 0.771-1.102 0.862-2.479 0.362-3.626l-7e-3 0.028c-0.301-0.861-0.464-1.788-0.464-2.751 0-2.89 1.474-5.434 3.714-6.924h2e-3c1.267-0.836 2.071-2.311 1.971-3.936z"/>
  <path d="m55.114 91.567v-0.597l4.23-0.57c0.339-0.047 0.575-0.359 0.531-0.695-0.047-0.336-0.355-0.572-0.695-0.527l-10.788 1.404c-0.338 0.045-0.647-0.19-0.694-0.528-0.045-0.336 0.192-0.647 0.529-0.691l4.042-0.546v-0.593l1.616-0.217v0.599l1.229-0.164v-0.602l4.23-0.57c0.339-0.047 0.575-0.359 0.531-0.693-0.047-0.338-0.355-0.574-0.695-0.528l-10.788 1.405c-0.338 0.047-0.647-0.189-0.694-0.528-0.045-0.334 0.192-0.647 0.529-0.694l4.042-0.547v-1.47l-9.403 2e-3v2.775l-0.199 0.035c-0.411 0.059-0.698 0.435-0.644 0.847 0.054 0.408 0.431 0.697 0.843 0.646v1.6l-0.199 0.039c-0.411 0.059-0.698 0.438-0.644 0.846 0.054 0.411 0.431 0.7 0.843 0.644v1.608l-0.199 0.035c-0.411 0.054-0.698 0.433-0.644 0.846 0.054 0.407 0.431 0.696 0.843 0.64v1.537l1.982 1.931h3.123c0.037 0.854 1.209 1.54 2.646 1.54 1.439 0 2.605-0.686 2.646-1.54h3.295l1.972-1.914-9e-3 -2.689 0.823-0.11c0.339-0.046 0.575-0.359 0.53-0.694-0.046-0.338-0.355-0.573-0.695-0.528v-1e-3l-10.788 1.406c-0.338 0.048-0.647-0.188-0.694-0.524-0.045-0.343 0.192-0.65 0.529-0.697l4.042-0.543v-0.596l1.617-0.217v0.599l1.229-0.171zm-9.133-5.033c0.351 0 0.635 0.286 0.635 0.636s-0.284 0.634-0.635 0.634-0.636-0.283-0.636-0.634c1e-3 -0.35 0.285-0.636 0.636-0.636zm0 7.533c-0.351 0-0.636-0.284-0.636-0.638 0-0.349 0.285-0.635 0.636-0.635s0.635 0.286 0.635 0.635c1e-3 0.354-0.283 0.638-0.635 0.638zm0.024-3.135c-0.351 0-0.637-0.281-0.637-0.632 0-0.349 0.286-0.634 0.637-0.634 0.352 0 0.635 0.285 0.635 0.634 0 0.35-0.283 0.632-0.635 0.632z"/>
  <polygon points="55.114 84.215 53.886 84.215 53.886 85.471 55.114 85.311"/>
 </g>
 <g transform="matrix(3.2446 0 0 3.2446 97.075 -2.2244)" fill="#fff" featurekey="dYASrj-0">
  <path d="m4.7559 17.412h4.4238v2.5879h-7.3535v-14.111h2.9297v11.523zm7.7245-8.9551c-0.88867 0-1.6309-0.72266-1.6309-1.6211 0-0.88867 0.74219-1.6113 1.6309-1.6113 0.86914 0 1.6113 0.72266 1.6113 1.6113 0 0.89844-0.74219 1.6211-1.6113 1.6211zm-1.4355 11.543v-10.039h2.832v10.039h-2.832zm12.656-10.039h2.6758v9.2871c0 3.9063-2.1191 5.4883-5.3223 5.4883-2.8809 0-4.4434-1.2109-5.1758-3.1152l2.334-0.99609c0.56641 1.2988 1.3867 1.9238 2.7344 1.9238 1.7773 0 2.6074-1.1133 2.6074-3.0957v-1.1719c-0.58594 0.80078-1.7383 1.3672-3.0469 1.3672-2.4902 0-4.5801-1.9629-4.5801-4.9609 0-3.0078 2.0996-4.9219 4.5996-4.9219 1.4063 0 2.5586 0.625 3.1055 1.5234zm-2.4707 7.412c1.4648 0 2.5977-1.1914 2.5977-2.6855 0-1.5039-1.1133-2.6953-2.5977-2.6953-1.4746 0-2.5879 1.1426-2.5879 2.6953 0 1.5332 1.1328 2.6855 2.5879 2.6855zm14.141-7.607c2.2461 0 3.5938 1.25 3.5938 3.7598v6.4746h-2.8223v-6.0156c0-1.4746-0.82031-1.9629-1.8262-1.9629-1.0449 0-2.1875 0.51758-2.207 2.4414v5.5371h-2.8125v-15h2.8125v6.1621c0.71289-0.86914 1.8359-1.3965 3.2617-1.3965zm10.039 10.234c-1.9531 0-3.0664-1.1328-3.0664-3.1348v-4.7461h-1.9727v-2.1582h0.63477c1.0645 0 1.6504-0.41016 1.6504-1.9141v-1.3281h2.5391v3.2422h2.0703v2.1582h-2.0703v4.4434c0 0.89844 0.43945 1.2988 1.1621 1.2988h0.9082v2.1387h-1.8555zm9.9316-10.234c2.6367 0 4.8242 1.9531 4.8242 5.2344s-2.1875 5.2344-4.8242 5.2344c-1.3867 0-2.5977-0.55664-3.1641-1.543l-0.068359 1.3086h-2.666v-15h2.8125v6.1816c0.58594-0.9082 1.7578-1.416 3.0859-1.416zm-0.6543 8.1344c1.4941 0 2.666-1.1035 2.666-2.9004 0-1.8066-1.1719-2.9102-2.666-2.9102-1.4844 0-2.6563 1.1523-2.6563 2.9102s1.1621 2.9004 2.6563 2.9004zm12.275 2.2949c-3.1934 0-5.498-1.9434-5.498-5.2246 0-3.2617 2.2852-5.2051 5.498-5.2051 3.2324 0 5.5078 1.9434 5.5078 5.2051 0 3.2813-2.2852 5.2246-5.5078 5.2246zm-0.0293-2.2363c1.6309 0 2.7441-1.1914 2.7441-2.9883s-1.1133-2.9883-2.7441-2.9883c-1.5723 0-2.6758 1.1914-2.6758 2.9883s1.1035 2.9883 2.6758 2.9883zm14.199-7.998h2.8809l-6.1914 14.766h-2.8516l2.2949-5.1367-4.1309-9.6289h3.0664l2.3926 6.6016z" fill="#fff"/>
 </g>
</svg>
